<?xml version="1.0" encoding="UTF-8"?>
<svg xmlns="http://www.w3.org/2000/svg" xmlns:xlink="http://www.w3.org/1999/xlink" width="1920pt" height="1080pt" viewBox="0 0 1920 1080" version="1.1">
<defs>
<g>
<symbol overflow="visible" id="glyph0-0">
<path style="stroke:none;" d="M 0.65625 0 L 0.65625 -8.125 L 7.15625 -8.125 L 7.15625 0 Z M 0.859375 -0.203125 L 6.953125 -0.203125 L 6.953125 -7.921875 L 0.859375 -7.921875 Z "/>
</symbol>
<symbol overflow="visible" id="glyph0-1">
<path style="stroke:none;" d="M 4.171875 -8.078125 L 4.171875 -0.53125 L 6 -0.53125 C 6.125 -0.53125 6.210938 -0.503906 6.265625 -0.453125 C 6.316406 -0.410156 6.34375 -0.347656 6.34375 -0.265625 C 6.34375 -0.191406 6.316406 -0.128906 6.265625 -0.078125 C 6.210938 -0.0234375 6.125 0 6 0 L 1.796875 0 C 1.671875 0 1.582031 -0.0234375 1.53125 -0.078125 C 1.476562 -0.128906 1.453125 -0.191406 1.453125 -0.265625 C 1.453125 -0.347656 1.476562 -0.410156 1.53125 -0.453125 C 1.582031 -0.503906 1.671875 -0.53125 1.796875 -0.53125 L 3.625 -0.53125 L 3.625 -7.34375 L 1.890625 -6.796875 C 1.804688 -6.765625 1.742188 -6.75 1.703125 -6.75 C 1.640625 -6.75 1.582031 -6.773438 1.53125 -6.828125 C 1.476562 -6.878906 1.453125 -6.941406 1.453125 -7.015625 C 1.453125 -7.078125 1.472656 -7.140625 1.515625 -7.203125 C 1.546875 -7.234375 1.617188 -7.269531 1.734375 -7.3125 Z "/>
</symbol>
<symbol overflow="visible" id="glyph0-2">
<path style="stroke:none;" d="M 3.796875 -1.53125 L 4.015625 -1.53125 C 4.253906 -1.53125 4.457031 -1.445312 4.625 -1.28125 C 4.789062 -1.113281 4.875 -0.910156 4.875 -0.671875 C 4.875 -0.429688 4.789062 -0.226562 4.625 -0.0625 C 4.457031 0.101562 4.253906 0.1875 4.015625 0.1875 L 3.796875 0.1875 C 3.554688 0.1875 3.347656 0.101562 3.171875 -0.0625 C 3.003906 -0.226562 2.921875 -0.429688 2.921875 -0.671875 C 2.921875 -0.910156 3.003906 -1.113281 3.171875 -1.28125 C 3.347656 -1.445312 3.554688 -1.53125 3.796875 -1.53125 Z "/>
</symbol>
<symbol overflow="visible" id="glyph0-3">
<path style="stroke:none;" d="M 2.4375 -7.421875 L 2.4375 -4.8125 C 2.75 -4.945312 3.046875 -5.046875 3.328125 -5.109375 C 3.617188 -5.179688 3.894531 -5.21875 4.15625 -5.21875 C 4.820312 -5.21875 5.378906 -4.976562 5.828125 -4.5 C 6.273438 -4.03125 6.5 -3.414062 6.5 -2.65625 C 6.5 -1.8125 6.242188 -1.125 5.734375 -0.59375 C 5.234375 -0.0703125 4.601562 0.1875 3.84375 0.1875 C 3.332031 0.1875 2.847656 0.078125 2.390625 -0.140625 C 2.054688 -0.296875 1.753906 -0.492188 1.484375 -0.734375 C 1.328125 -0.867188 1.25 -0.984375 1.25 -1.078125 C 1.25 -1.148438 1.269531 -1.210938 1.3125 -1.265625 C 1.363281 -1.328125 1.425781 -1.359375 1.5 -1.359375 C 1.570312 -1.359375 1.648438 -1.316406 1.734375 -1.234375 C 2.367188 -0.640625 3.0625 -0.34375 3.8125 -0.34375 C 4.4375 -0.34375 4.953125 -0.554688 5.359375 -0.984375 C 5.765625 -1.410156 5.96875 -1.972656 5.96875 -2.671875 C 5.96875 -3.273438 5.789062 -3.757812 5.4375 -4.125 C 5.082031 -4.488281 4.632812 -4.671875 4.09375 -4.671875 C 3.539062 -4.671875 2.988281 -4.523438 2.4375 -4.234375 C 2.300781 -4.171875 2.207031 -4.140625 2.15625 -4.140625 C 2.070312 -4.140625 2.003906 -4.164062 1.953125 -4.21875 C 1.910156 -4.269531 1.890625 -4.34375 1.890625 -4.4375 L 1.890625 -7.96875 L 5.625 -7.96875 C 5.75 -7.96875 5.835938 -7.941406 5.890625 -7.890625 C 5.941406 -7.835938 5.96875 -7.769531 5.96875 -7.6875 C 5.96875 -7.613281 5.941406 -7.550781 5.890625 -7.5 C 5.835938 -7.445312 5.75 -7.421875 5.625 -7.421875 Z "/>
</symbol>
<symbol overflow="visible" id="glyph0-4">
<path style="stroke:none;" d=""/>
</symbol>
</g>
</defs>
<g id="surface882">
<g style="fill:rgb(10.196078%,10.196078%,10.196078%);fill-opacity:1;">
  <use xlink:href="#glyph0-1" x="30" y="31.099609"/>
  <use xlink:href="#glyph0-2" x="38" y="31.099609"/>
  <use xlink:href="#glyph0-3" x="46" y="31.099609"/>
  <use xlink:href="#glyph0-3" x="54" y="31.099609"/>
  <use xlink:href="#glyph0-4" x="62" y="31.099609"/>
</g>
</g>
</svg>
