<?xml version="1.0" encoding="UTF-8"?>
<svg xmlns="http://www.w3.org/2000/svg" xmlns:xlink="http://www.w3.org/1999/xlink" width="1920pt" height="1080pt" viewBox="0 0 1920 1080" version="1.1">
<defs>
<g>
<symbol overflow="visible" id="glyph0-0">
<path style="stroke:none;" d="M 0.65625 0 L 0.65625 -8.125 L 7.15625 -8.125 L 7.15625 0 Z M 0.859375 -0.203125 L 6.953125 -0.203125 L 6.953125 -7.921875 L 0.859375 -7.921875 Z "/>
</symbol>
<symbol overflow="visible" id="glyph0-1">
<path style="stroke:none;" d="M 6.625 -4.0625 L 6.625 -3.296875 L 1.1875 -3.296875 L 1.1875 -4.0625 Z "/>
</symbol>
<symbol overflow="visible" id="glyph0-2">
<path style="stroke:none;" d="M 1.609375 -0.53125 L 5.703125 -0.53125 L 5.703125 -0.75 C 5.703125 -0.875 5.726562 -0.960938 5.78125 -1.015625 C 5.832031 -1.066406 5.894531 -1.09375 5.96875 -1.09375 C 6.050781 -1.09375 6.113281 -1.066406 6.15625 -1.015625 C 6.207031 -0.960938 6.234375 -0.875 6.234375 -0.75 L 6.234375 0 L 1.078125 0 L 1.078125 -0.78125 C 2.160156 -1.757812 3.21875 -2.753906 4.25 -3.765625 C 4.726562 -4.234375 5.054688 -4.578125 5.234375 -4.796875 C 5.410156 -5.015625 5.53125 -5.207031 5.59375 -5.375 C 5.65625 -5.539062 5.6875 -5.707031 5.6875 -5.875 C 5.6875 -6.332031 5.503906 -6.738281 5.140625 -7.09375 C 4.773438 -7.445312 4.332031 -7.625 3.8125 -7.625 C 3.34375 -7.625 2.925781 -7.488281 2.5625 -7.21875 C 2.207031 -6.945312 1.976562 -6.617188 1.875 -6.234375 C 1.84375 -6.128906 1.8125 -6.0625 1.78125 -6.03125 C 1.726562 -5.988281 1.664062 -5.96875 1.59375 -5.96875 C 1.519531 -5.96875 1.457031 -5.988281 1.40625 -6.03125 C 1.363281 -6.082031 1.34375 -6.144531 1.34375 -6.21875 C 1.34375 -6.414062 1.453125 -6.6875 1.671875 -7.03125 C 1.898438 -7.382812 2.207031 -7.660156 2.59375 -7.859375 C 2.988281 -8.054688 3.390625 -8.15625 3.796875 -8.15625 C 4.460938 -8.15625 5.035156 -7.921875 5.515625 -7.453125 C 5.992188 -6.992188 6.234375 -6.472656 6.234375 -5.890625 C 6.234375 -5.648438 6.191406 -5.425781 6.109375 -5.21875 C 6.035156 -5.007812 5.898438 -4.785156 5.703125 -4.546875 C 5.515625 -4.304688 5.171875 -3.941406 4.671875 -3.453125 C 3.410156 -2.210938 2.390625 -1.253906 1.609375 -0.578125 Z "/>
</symbol>
<symbol overflow="visible" id="glyph0-3">
<path style="stroke:none;" d="M 3.796875 -1.53125 L 4.015625 -1.53125 C 4.253906 -1.53125 4.457031 -1.445312 4.625 -1.28125 C 4.789062 -1.113281 4.875 -0.910156 4.875 -0.671875 C 4.875 -0.429688 4.789062 -0.226562 4.625 -0.0625 C 4.457031 0.101562 4.253906 0.1875 4.015625 0.1875 L 3.796875 0.1875 C 3.554688 0.1875 3.347656 0.101562 3.171875 -0.0625 C 3.003906 -0.226562 2.921875 -0.429688 2.921875 -0.671875 C 2.921875 -0.910156 3.003906 -1.113281 3.171875 -1.28125 C 3.347656 -1.445312 3.554688 -1.53125 3.796875 -1.53125 Z "/>
</symbol>
<symbol overflow="visible" id="glyph0-4">
<path style="stroke:none;" d="M 2.3125 -3.375 C 2.644531 -3.851562 2.984375 -4.207031 3.328125 -4.4375 C 3.679688 -4.675781 4.070312 -4.796875 4.5 -4.796875 C 5.0625 -4.796875 5.5625 -4.5625 6 -4.09375 C 6.445312 -3.625 6.671875 -3.039062 6.671875 -2.34375 C 6.671875 -1.707031 6.46875 -1.125 6.0625 -0.59375 C 5.65625 -0.0703125 5.101562 0.1875 4.40625 0.1875 C 3.9375 0.1875 3.5 0.046875 3.09375 -0.234375 C 2.695312 -0.515625 2.390625 -0.953125 2.171875 -1.546875 C 1.878906 -2.273438 1.734375 -3.082031 1.734375 -3.96875 C 1.734375 -4.644531 1.867188 -5.269531 2.140625 -5.84375 C 2.335938 -6.28125 2.601562 -6.664062 2.9375 -7 C 3.28125 -7.34375 3.675781 -7.617188 4.125 -7.828125 C 4.582031 -8.046875 5.070312 -8.15625 5.59375 -8.15625 C 5.945312 -8.15625 6.242188 -8.082031 6.484375 -7.9375 C 6.585938 -7.875 6.640625 -7.789062 6.640625 -7.6875 C 6.640625 -7.613281 6.613281 -7.550781 6.5625 -7.5 C 6.519531 -7.445312 6.460938 -7.421875 6.390625 -7.421875 C 6.335938 -7.421875 6.273438 -7.441406 6.203125 -7.484375 C 6.023438 -7.578125 5.804688 -7.625 5.546875 -7.625 C 4.722656 -7.625 3.96875 -7.265625 3.28125 -6.546875 C 2.601562 -5.835938 2.265625 -5 2.265625 -4.03125 C 2.265625 -3.882812 2.28125 -3.664062 2.3125 -3.375 Z M 2.4375 -2.484375 C 2.59375 -1.710938 2.84375 -1.160156 3.1875 -0.828125 C 3.53125 -0.503906 3.9375 -0.34375 4.40625 -0.34375 C 4.882812 -0.34375 5.289062 -0.523438 5.625 -0.890625 C 5.957031 -1.265625 6.125 -1.75 6.125 -2.34375 C 6.125 -2.894531 5.953125 -3.351562 5.609375 -3.71875 C 5.273438 -4.082031 4.894531 -4.265625 4.46875 -4.265625 C 4.0625 -4.265625 3.664062 -4.085938 3.28125 -3.734375 C 3.03125 -3.503906 2.75 -3.085938 2.4375 -2.484375 Z "/>
</symbol>
<symbol overflow="visible" id="glyph0-5">
<path style="stroke:none;" d="M 6.09375 -4.5 C 5.8125 -4.019531 5.476562 -3.65625 5.09375 -3.40625 C 4.71875 -3.164062 4.332031 -3.046875 3.9375 -3.046875 C 3.570312 -3.046875 3.21875 -3.148438 2.875 -3.359375 C 2.53125 -3.566406 2.253906 -3.875 2.046875 -4.28125 C 1.847656 -4.695312 1.75 -5.128906 1.75 -5.578125 C 1.75 -6.222656 1.945312 -6.8125 2.34375 -7.34375 C 2.75 -7.882812 3.289062 -8.15625 3.96875 -8.15625 C 4.457031 -8.15625 4.898438 -8.003906 5.296875 -7.703125 C 5.691406 -7.398438 6 -6.96875 6.21875 -6.40625 C 6.5 -5.664062 6.640625 -4.8125 6.640625 -3.84375 C 6.640625 -3.09375 6.519531 -2.46875 6.28125 -1.96875 C 6.125 -1.625 5.890625 -1.296875 5.578125 -0.984375 C 5.265625 -0.671875 4.914062 -0.410156 4.53125 -0.203125 C 3.988281 0.0546875 3.429688 0.1875 2.859375 0.1875 C 2.484375 0.1875 2.175781 0.113281 1.9375 -0.03125 C 1.820312 -0.09375 1.765625 -0.175781 1.765625 -0.28125 C 1.765625 -0.351562 1.789062 -0.410156 1.84375 -0.453125 C 1.894531 -0.503906 1.957031 -0.53125 2.03125 -0.53125 C 2.070312 -0.53125 2.144531 -0.507812 2.25 -0.46875 C 2.414062 -0.382812 2.601562 -0.34375 2.8125 -0.34375 C 3.71875 -0.34375 4.492188 -0.664062 5.140625 -1.3125 C 5.785156 -1.96875 6.109375 -2.785156 6.109375 -3.765625 C 6.109375 -3.941406 6.101562 -4.1875 6.09375 -4.5 Z M 5.984375 -5.390625 C 5.765625 -6.253906 5.488281 -6.84375 5.15625 -7.15625 C 4.820312 -7.46875 4.429688 -7.625 3.984375 -7.625 C 3.535156 -7.625 3.140625 -7.429688 2.796875 -7.046875 C 2.453125 -6.660156 2.28125 -6.171875 2.28125 -5.578125 C 2.28125 -4.992188 2.453125 -4.515625 2.796875 -4.140625 C 3.140625 -3.765625 3.523438 -3.578125 3.953125 -3.578125 C 4.203125 -3.578125 4.445312 -3.644531 4.6875 -3.78125 C 4.9375 -3.914062 5.171875 -4.117188 5.390625 -4.390625 C 5.523438 -4.566406 5.722656 -4.898438 5.984375 -5.390625 Z "/>
</symbol>
<symbol overflow="visible" id="glyph0-6">
<path style="stroke:none;" d=""/>
</symbol>
</g>
</defs>
<g id="surface1052">
<g style="fill:rgb(10.196078%,10.196078%,10.196078%);fill-opacity:1;">
  <use xlink:href="#glyph0-1" x="30" y="31.099609"/>
  <use xlink:href="#glyph0-2" x="38" y="31.099609"/>
  <use xlink:href="#glyph0-3" x="46" y="31.099609"/>
  <use xlink:href="#glyph0-4" x="54" y="31.099609"/>
  <use xlink:href="#glyph0-5" x="62" y="31.099609"/>
  <use xlink:href="#glyph0-6" x="70" y="31.099609"/>
</g>
</g>
</svg>
