<?xml version="1.0" encoding="UTF-8"?>
<svg xmlns="http://www.w3.org/2000/svg" xmlns:xlink="http://www.w3.org/1999/xlink" width="1920pt" height="1080pt" viewBox="0 0 1920 1080" version="1.1">
<defs>
<g>
<symbol overflow="visible" id="glyph0-0">
<path style="stroke:none;" d="M 0.65625 0 L 0.65625 -8.125 L 7.15625 -8.125 L 7.15625 0 Z M 0.859375 -0.203125 L 6.953125 -0.203125 L 6.953125 -7.921875 L 0.859375 -7.921875 Z "/>
</symbol>
<symbol overflow="visible" id="glyph0-1">
<path style="stroke:none;" d="M 6.328125 -6.890625 L 6.328125 -0.53125 L 6.890625 -0.53125 C 7.179688 -0.53125 7.328125 -0.441406 7.328125 -0.265625 C 7.328125 -0.0859375 7.179688 0 6.890625 0 L 5.21875 0 C 4.925781 0 4.78125 -0.0859375 4.78125 -0.265625 C 4.78125 -0.441406 4.925781 -0.53125 5.21875 -0.53125 L 5.796875 -0.53125 L 5.796875 -6.890625 L 3.0625 -6.890625 L 3.0625 -2.546875 C 3.0625 -1.535156 2.890625 -0.820312 2.546875 -0.40625 C 2.210938 0 1.804688 0.203125 1.328125 0.203125 C 1.109375 0.203125 0.890625 0.175781 0.671875 0.125 C 0.453125 0.0820312 0.320312 0.0351562 0.28125 -0.015625 C 0.238281 -0.078125 0.21875 -0.195312 0.21875 -0.375 L 0.21875 -1.171875 C 0.21875 -1.453125 0.3125 -1.59375 0.5 -1.59375 C 0.664062 -1.59375 0.75 -1.46875 0.75 -1.21875 L 0.75 -0.390625 C 0.9375 -0.335938 1.101562 -0.3125 1.25 -0.3125 C 2.101562 -0.3125 2.53125 -1.054688 2.53125 -2.546875 L 2.53125 -6.890625 L 1.796875 -6.890625 C 1.492188 -6.890625 1.34375 -6.976562 1.34375 -7.15625 C 1.34375 -7.332031 1.492188 -7.421875 1.796875 -7.421875 L 6.890625 -7.421875 C 7.179688 -7.421875 7.328125 -7.332031 7.328125 -7.15625 C 7.328125 -6.976562 7.179688 -6.890625 6.890625 -6.890625 Z "/>
</symbol>
<symbol overflow="visible" id="glyph0-2">
<path style="stroke:none;" d="M 2 0 L 0.71875 0 C 0.488281 0 0.375 -0.0859375 0.375 -0.265625 C 0.375 -0.441406 0.488281 -0.53125 0.71875 -0.53125 L 1.359375 -0.53125 L 1.359375 -4.953125 L 0.71875 -4.953125 C 0.488281 -4.953125 0.375 -5.039062 0.375 -5.21875 C 0.375 -5.40625 0.488281 -5.5 0.71875 -5.5 L 2.609375 -5.5 C 2.847656 -5.5 2.96875 -5.40625 2.96875 -5.21875 C 2.96875 -5.039062 2.847656 -4.953125 2.609375 -4.953125 L 1.890625 -4.953125 L 1.890625 -0.765625 L 5.734375 -5.5 L 7.078125 -5.5 C 7.316406 -5.5 7.4375 -5.40625 7.4375 -5.21875 C 7.4375 -5.039062 7.316406 -4.953125 7.078125 -4.953125 L 6.359375 -4.953125 L 6.359375 -0.53125 L 7.078125 -0.53125 C 7.316406 -0.53125 7.4375 -0.441406 7.4375 -0.265625 C 7.4375 -0.0859375 7.316406 0 7.078125 0 L 5.109375 0 C 4.867188 0 4.75 -0.0859375 4.75 -0.265625 C 4.75 -0.441406 4.867188 -0.53125 5.109375 -0.53125 L 5.828125 -0.53125 L 5.828125 -4.71875 Z "/>
</symbol>
<symbol overflow="visible" id="glyph0-3">
<path style="stroke:none;" d="M 5.625 -2.625 L 2.171875 -2.625 L 2.171875 -0.53125 L 2.78125 -0.53125 C 3.007812 -0.53125 3.125 -0.441406 3.125 -0.265625 C 3.125 -0.0859375 3.007812 0 2.78125 0 L 1.03125 0 C 0.789062 0 0.671875 -0.0859375 0.671875 -0.265625 C 0.671875 -0.441406 0.789062 -0.53125 1.03125 -0.53125 L 1.640625 -0.53125 L 1.640625 -4.953125 L 1.21875 -4.953125 C 0.988281 -4.953125 0.875 -5.039062 0.875 -5.21875 C 0.875 -5.40625 0.988281 -5.5 1.21875 -5.5 L 2.578125 -5.5 C 2.816406 -5.5 2.9375 -5.40625 2.9375 -5.21875 C 2.9375 -5.039062 2.816406 -4.953125 2.578125 -4.953125 L 2.171875 -4.953125 L 2.171875 -3.15625 L 5.625 -3.15625 L 5.625 -4.953125 L 5.21875 -4.953125 C 4.976562 -4.953125 4.859375 -5.039062 4.859375 -5.21875 C 4.859375 -5.40625 4.976562 -5.5 5.21875 -5.5 L 6.578125 -5.5 C 6.816406 -5.5 6.9375 -5.40625 6.9375 -5.21875 C 6.9375 -5.039062 6.816406 -4.953125 6.578125 -4.953125 L 6.15625 -4.953125 L 6.15625 -0.53125 L 6.765625 -0.53125 C 7.003906 -0.53125 7.125 -0.441406 7.125 -0.265625 C 7.125 -0.0859375 7.003906 0 6.765625 0 L 5.03125 0 C 4.789062 0 4.671875 -0.0859375 4.671875 -0.265625 C 4.671875 -0.441406 4.789062 -0.53125 5.03125 -0.53125 L 5.625 -0.53125 Z "/>
</symbol>
<symbol overflow="visible" id="glyph0-4">
<path style="stroke:none;" d="M 6.78125 -2.625 L 1.359375 -2.625 C 1.441406 -1.9375 1.726562 -1.378906 2.21875 -0.953125 C 2.707031 -0.535156 3.304688 -0.328125 4.015625 -0.328125 C 4.410156 -0.328125 4.828125 -0.390625 5.265625 -0.515625 C 5.703125 -0.648438 6.054688 -0.828125 6.328125 -1.046875 C 6.410156 -1.109375 6.484375 -1.140625 6.546875 -1.140625 C 6.609375 -1.140625 6.664062 -1.113281 6.71875 -1.0625 C 6.769531 -1.007812 6.796875 -0.945312 6.796875 -0.875 C 6.796875 -0.800781 6.765625 -0.726562 6.703125 -0.65625 C 6.492188 -0.445312 6.128906 -0.25 5.609375 -0.0625 C 5.097656 0.113281 4.566406 0.203125 4.015625 0.203125 C 3.097656 0.203125 2.332031 -0.09375 1.71875 -0.6875 C 1.113281 -1.289062 0.8125 -2.015625 0.8125 -2.859375 C 0.8125 -3.640625 1.097656 -4.304688 1.671875 -4.859375 C 2.242188 -5.410156 2.953125 -5.6875 3.796875 -5.6875 C 4.671875 -5.6875 5.390625 -5.398438 5.953125 -4.828125 C 6.515625 -4.265625 6.789062 -3.53125 6.78125 -2.625 Z M 6.25 -3.15625 C 6.144531 -3.75 5.863281 -4.226562 5.40625 -4.59375 C 4.957031 -4.957031 4.421875 -5.140625 3.796875 -5.140625 C 3.179688 -5.140625 2.648438 -4.957031 2.203125 -4.59375 C 1.753906 -4.238281 1.472656 -3.757812 1.359375 -3.15625 Z "/>
</symbol>
<symbol overflow="visible" id="glyph0-5">
<path style="stroke:none;" d="M 2 0 L 0.71875 0 C 0.488281 0 0.375 -0.0859375 0.375 -0.265625 C 0.375 -0.441406 0.488281 -0.53125 0.71875 -0.53125 L 1.359375 -0.53125 L 1.359375 -4.953125 L 0.71875 -4.953125 C 0.488281 -4.953125 0.375 -5.039062 0.375 -5.21875 C 0.375 -5.40625 0.488281 -5.5 0.71875 -5.5 L 2.609375 -5.5 C 2.847656 -5.5 2.96875 -5.40625 2.96875 -5.21875 C 2.96875 -5.039062 2.847656 -4.953125 2.609375 -4.953125 L 1.890625 -4.953125 L 1.890625 -0.765625 L 5.734375 -5.5 L 7.078125 -5.5 C 7.316406 -5.5 7.4375 -5.40625 7.4375 -5.21875 C 7.4375 -5.039062 7.316406 -4.953125 7.078125 -4.953125 L 6.359375 -4.953125 L 6.359375 -0.53125 L 7.078125 -0.53125 C 7.316406 -0.53125 7.4375 -0.441406 7.4375 -0.265625 C 7.4375 -0.0859375 7.316406 0 7.078125 0 L 5.109375 0 C 4.867188 0 4.75 -0.0859375 4.75 -0.265625 C 4.75 -0.441406 4.867188 -0.53125 5.109375 -0.53125 L 5.828125 -0.53125 L 5.828125 -4.71875 Z M 2.375 -7.984375 C 2.445312 -7.984375 2.503906 -7.960938 2.546875 -7.921875 C 2.597656 -7.878906 2.628906 -7.800781 2.640625 -7.6875 C 2.660156 -7.445312 2.796875 -7.226562 3.046875 -7.03125 C 3.296875 -6.84375 3.617188 -6.75 4.015625 -6.75 C 4.410156 -6.75 4.726562 -6.84375 4.96875 -7.03125 C 5.21875 -7.226562 5.359375 -7.445312 5.390625 -7.6875 C 5.398438 -7.800781 5.421875 -7.875 5.453125 -7.90625 C 5.515625 -7.957031 5.582031 -7.984375 5.65625 -7.984375 C 5.726562 -7.984375 5.789062 -7.957031 5.84375 -7.90625 C 5.894531 -7.851562 5.921875 -7.785156 5.921875 -7.703125 C 5.921875 -7.316406 5.75 -6.972656 5.40625 -6.671875 C 5.0625 -6.367188 4.597656 -6.21875 4.015625 -6.21875 C 3.429688 -6.21875 2.96875 -6.367188 2.625 -6.671875 C 2.28125 -6.972656 2.109375 -7.316406 2.109375 -7.703125 C 2.109375 -7.785156 2.128906 -7.851562 2.171875 -7.90625 C 2.222656 -7.957031 2.289062 -7.984375 2.375 -7.984375 Z "/>
</symbol>
<symbol overflow="visible" id="glyph0-6">
<path style="stroke:none;" d="M 5.4375 0 L 5.4375 -0.765625 C 4.65625 -0.117188 3.828125 0.203125 2.953125 0.203125 C 2.316406 0.203125 1.816406 0.0390625 1.453125 -0.28125 C 1.097656 -0.601562 0.921875 -1 0.921875 -1.46875 C 0.921875 -1.976562 1.15625 -2.425781 1.625 -2.8125 C 2.101562 -3.195312 2.796875 -3.390625 3.703125 -3.390625 C 3.941406 -3.390625 4.207031 -3.375 4.5 -3.34375 C 4.789062 -3.3125 5.101562 -3.265625 5.4375 -3.203125 L 5.4375 -4.0625 C 5.4375 -4.351562 5.300781 -4.601562 5.03125 -4.8125 C 4.757812 -5.03125 4.351562 -5.140625 3.8125 -5.140625 C 3.394531 -5.140625 2.8125 -5.019531 2.0625 -4.78125 C 1.925781 -4.738281 1.835938 -4.71875 1.796875 -4.71875 C 1.734375 -4.71875 1.675781 -4.742188 1.625 -4.796875 C 1.582031 -4.847656 1.5625 -4.910156 1.5625 -4.984375 C 1.5625 -5.054688 1.582031 -5.113281 1.625 -5.15625 C 1.675781 -5.21875 1.914062 -5.304688 2.34375 -5.421875 C 3 -5.597656 3.492188 -5.6875 3.828125 -5.6875 C 4.503906 -5.6875 5.03125 -5.519531 5.40625 -5.1875 C 5.78125 -4.851562 5.96875 -4.476562 5.96875 -4.0625 L 5.96875 -0.53125 L 6.6875 -0.53125 C 6.8125 -0.53125 6.898438 -0.503906 6.953125 -0.453125 C 7.015625 -0.410156 7.046875 -0.347656 7.046875 -0.265625 C 7.046875 -0.191406 7.015625 -0.128906 6.953125 -0.078125 C 6.898438 -0.0234375 6.8125 0 6.6875 0 Z M 5.4375 -2.65625 C 5.1875 -2.726562 4.921875 -2.78125 4.640625 -2.8125 C 4.359375 -2.84375 4.066406 -2.859375 3.765625 -2.859375 C 2.984375 -2.859375 2.375 -2.691406 1.9375 -2.359375 C 1.613281 -2.109375 1.453125 -1.8125 1.453125 -1.46875 C 1.453125 -1.144531 1.578125 -0.875 1.828125 -0.65625 C 2.078125 -0.4375 2.441406 -0.328125 2.921875 -0.328125 C 3.390625 -0.328125 3.820312 -0.414062 4.21875 -0.59375 C 4.613281 -0.78125 5.019531 -1.078125 5.4375 -1.484375 Z "/>
</symbol>
<symbol overflow="visible" id="glyph0-7">
<path style="stroke:none;" d="M 5.484375 -2.203125 L 3.953125 -2.203125 C 2.734375 -1.703125 2.035156 -0.96875 1.859375 0 L 1.125 0 C 0.925781 0 0.828125 -0.0859375 0.828125 -0.265625 C 0.828125 -0.441406 0.925781 -0.53125 1.125 -0.53125 L 1.453125 -0.53125 C 1.722656 -1.320312 2.316406 -1.914062 3.234375 -2.3125 C 2.253906 -2.519531 1.765625 -3.0625 1.765625 -3.9375 C 1.765625 -4.394531 1.914062 -4.769531 2.21875 -5.0625 C 2.53125 -5.351562 3.007812 -5.5 3.65625 -5.5 L 6.609375 -5.5 C 6.804688 -5.5 6.90625 -5.40625 6.90625 -5.21875 C 6.90625 -5.039062 6.804688 -4.953125 6.609375 -4.953125 L 6.03125 -4.953125 L 6.03125 -0.53125 L 6.609375 -0.53125 C 6.804688 -0.53125 6.90625 -0.441406 6.90625 -0.265625 C 6.90625 -0.0859375 6.804688 0 6.609375 0 L 4.703125 0 C 4.503906 0 4.40625 -0.0859375 4.40625 -0.265625 C 4.40625 -0.441406 4.503906 -0.53125 4.703125 -0.53125 L 5.484375 -0.53125 Z M 5.484375 -2.734375 L 5.484375 -4.953125 L 3.765625 -4.953125 C 2.785156 -4.953125 2.296875 -4.609375 2.296875 -3.921875 C 2.296875 -3.523438 2.425781 -3.226562 2.6875 -3.03125 C 2.957031 -2.832031 3.457031 -2.734375 4.1875 -2.734375 Z "/>
</symbol>
</g>
</defs>
<g id="surface1">
<g style="fill:rgb(18.039216%,40.784314%,77.254902%);fill-opacity:1;">
  <use xlink:href="#glyph0-1" x="30" y="31.099609"/>
  <use xlink:href="#glyph0-2" x="38" y="31.099609"/>
  <use xlink:href="#glyph0-3" x="46" y="31.099609"/>
  <use xlink:href="#glyph0-4" x="54" y="31.099609"/>
  <use xlink:href="#glyph0-5" x="62" y="31.099609"/>
  <use xlink:href="#glyph0-3" x="70" y="31.099609"/>
  <use xlink:href="#glyph0-6" x="78" y="31.099609"/>
  <use xlink:href="#glyph0-7" x="86" y="31.099609"/>
</g>
</g>
</svg>
