<?xml version="1.0" encoding="UTF-8"?>
<svg xmlns="http://www.w3.org/2000/svg" xmlns:xlink="http://www.w3.org/1999/xlink" width="1920pt" height="1080pt" viewBox="0 0 1920 1080" version="1.1">
<defs>
<g>
<symbol overflow="visible" id="glyph0-0">
<path style="stroke:none;" d="M 0.296875 0 L 0.296875 -3.75 L 3.296875 -3.75 L 3.296875 0 Z M 0.390625 -0.09375 L 3.203125 -0.09375 L 3.203125 -3.65625 L 0.390625 -3.65625 Z "/>
</symbol>
<symbol overflow="visible" id="glyph0-1">
<path style="stroke:none;" d="M 1.265625 -1.40625 L 1.265625 -0.25 L 2.109375 -0.25 C 2.171875 -0.25 2.210938 -0.234375 2.234375 -0.203125 C 2.265625 -0.179688 2.28125 -0.15625 2.28125 -0.125 C 2.28125 -0.09375 2.265625 -0.0625 2.234375 -0.03125 C 2.210938 -0.0078125 2.171875 0 2.109375 0 L 0.6875 0 C 0.625 0 0.582031 -0.0078125 0.5625 -0.03125 C 0.539062 -0.0625 0.53125 -0.09375 0.53125 -0.125 C 0.53125 -0.15625 0.539062 -0.179688 0.5625 -0.203125 C 0.582031 -0.234375 0.625 -0.25 0.6875 -0.25 L 1.015625 -0.25 L 1.015625 -3.1875 L 0.6875 -3.1875 C 0.625 -3.1875 0.582031 -3.195312 0.5625 -3.21875 C 0.539062 -3.238281 0.53125 -3.269531 0.53125 -3.3125 C 0.53125 -3.34375 0.539062 -3.367188 0.5625 -3.390625 C 0.582031 -3.410156 0.625 -3.421875 0.6875 -3.421875 L 2.125 -3.421875 C 2.457031 -3.421875 2.726562 -3.320312 2.9375 -3.125 C 3.15625 -2.925781 3.265625 -2.691406 3.265625 -2.421875 C 3.265625 -2.265625 3.226562 -2.125 3.15625 -2 C 3.09375 -1.875 3.007812 -1.773438 2.90625 -1.703125 C 2.757812 -1.585938 2.609375 -1.507812 2.453125 -1.46875 C 2.335938 -1.425781 2.195312 -1.40625 2.03125 -1.40625 Z M 1.265625 -1.65625 L 2.046875 -1.65625 C 2.234375 -1.65625 2.40625 -1.691406 2.5625 -1.765625 C 2.71875 -1.847656 2.832031 -1.945312 2.90625 -2.0625 C 2.976562 -2.1875 3.015625 -2.304688 3.015625 -2.421875 C 3.015625 -2.617188 2.929688 -2.796875 2.765625 -2.953125 C 2.597656 -3.109375 2.390625 -3.1875 2.140625 -3.1875 L 1.265625 -3.1875 Z "/>
</symbol>
<symbol overflow="visible" id="glyph0-2">
<path style="stroke:none;" d="M 2.515625 0 L 2.515625 -0.359375 C 2.148438 -0.0546875 1.765625 0.09375 1.359375 0.09375 C 1.066406 0.09375 0.835938 0.0195312 0.671875 -0.125 C 0.503906 -0.28125 0.421875 -0.460938 0.421875 -0.671875 C 0.421875 -0.910156 0.53125 -1.117188 0.75 -1.296875 C 0.96875 -1.472656 1.285156 -1.5625 1.703125 -1.5625 C 1.816406 -1.5625 1.941406 -1.554688 2.078125 -1.546875 C 2.210938 -1.535156 2.359375 -1.515625 2.515625 -1.484375 L 2.515625 -1.875 C 2.515625 -2.007812 2.453125 -2.125 2.328125 -2.21875 C 2.203125 -2.320312 2.015625 -2.375 1.765625 -2.375 C 1.566406 -2.375 1.296875 -2.316406 0.953125 -2.203125 C 0.890625 -2.191406 0.847656 -2.1875 0.828125 -2.1875 C 0.796875 -2.1875 0.769531 -2.195312 0.75 -2.21875 C 0.726562 -2.238281 0.71875 -2.265625 0.71875 -2.296875 C 0.71875 -2.335938 0.726562 -2.363281 0.75 -2.375 C 0.769531 -2.40625 0.878906 -2.445312 1.078125 -2.5 C 1.378906 -2.582031 1.609375 -2.625 1.765625 -2.625 C 2.078125 -2.625 2.316406 -2.546875 2.484375 -2.390625 C 2.660156 -2.242188 2.75 -2.070312 2.75 -1.875 L 2.75 -0.25 L 3.078125 -0.25 C 3.140625 -0.25 3.179688 -0.234375 3.203125 -0.203125 C 3.234375 -0.179688 3.25 -0.15625 3.25 -0.125 C 3.25 -0.09375 3.234375 -0.0625 3.203125 -0.03125 C 3.179688 -0.0078125 3.140625 0 3.078125 0 Z M 2.515625 -1.21875 C 2.390625 -1.257812 2.265625 -1.285156 2.140625 -1.296875 C 2.015625 -1.316406 1.878906 -1.328125 1.734375 -1.328125 C 1.378906 -1.328125 1.097656 -1.25 0.890625 -1.09375 C 0.742188 -0.976562 0.671875 -0.835938 0.671875 -0.671875 C 0.671875 -0.523438 0.726562 -0.398438 0.84375 -0.296875 C 0.957031 -0.203125 1.125 -0.15625 1.34375 -0.15625 C 1.5625 -0.15625 1.757812 -0.195312 1.9375 -0.28125 C 2.125 -0.363281 2.316406 -0.5 2.515625 -0.6875 Z "/>
</symbol>
<symbol overflow="visible" id="glyph0-3">
<path style="stroke:none;" d="M 0.859375 -0.25 L 0.859375 -2.28125 L 0.53125 -2.28125 C 0.414062 -2.28125 0.359375 -2.320312 0.359375 -2.40625 C 0.359375 -2.488281 0.414062 -2.53125 0.53125 -2.53125 L 1.859375 -2.53125 C 2.523438 -2.53125 2.859375 -2.320312 2.859375 -1.90625 C 2.859375 -1.644531 2.6875 -1.472656 2.34375 -1.390625 C 2.863281 -1.328125 3.125 -1.101562 3.125 -0.71875 C 3.125 -0.238281 2.800781 0 2.15625 0 L 0.53125 0 C 0.414062 0 0.359375 -0.0390625 0.359375 -0.125 C 0.359375 -0.207031 0.414062 -0.25 0.53125 -0.25 Z M 1.109375 -1.515625 L 1.765625 -1.515625 C 2.328125 -1.515625 2.609375 -1.648438 2.609375 -1.921875 C 2.609375 -2.035156 2.5625 -2.125 2.46875 -2.1875 C 2.375 -2.25 2.171875 -2.28125 1.859375 -2.28125 L 1.109375 -2.28125 Z M 1.109375 -0.25 L 2.140625 -0.25 C 2.628906 -0.25 2.875 -0.40625 2.875 -0.71875 C 2.875 -0.875 2.8125 -1.003906 2.6875 -1.109375 C 2.5625 -1.210938 2.257812 -1.265625 1.78125 -1.265625 L 1.109375 -1.265625 Z "/>
</symbol>
<symbol overflow="visible" id="glyph0-4">
<path style="stroke:none;" d="M 2.59375 -1.203125 L 1 -1.203125 L 1 -0.25 L 1.28125 -0.25 C 1.382812 -0.25 1.4375 -0.207031 1.4375 -0.125 C 1.4375 -0.0390625 1.382812 0 1.28125 0 L 0.484375 0 C 0.367188 0 0.3125 -0.0390625 0.3125 -0.125 C 0.3125 -0.207031 0.367188 -0.25 0.484375 -0.25 L 0.75 -0.25 L 0.75 -2.28125 L 0.5625 -2.28125 C 0.457031 -2.28125 0.40625 -2.320312 0.40625 -2.40625 C 0.40625 -2.488281 0.457031 -2.53125 0.5625 -2.53125 L 1.1875 -2.53125 C 1.300781 -2.53125 1.359375 -2.488281 1.359375 -2.40625 C 1.359375 -2.320312 1.300781 -2.28125 1.1875 -2.28125 L 1 -2.28125 L 1 -1.453125 L 2.59375 -1.453125 L 2.59375 -2.28125 L 2.40625 -2.28125 C 2.300781 -2.28125 2.25 -2.320312 2.25 -2.40625 C 2.25 -2.488281 2.300781 -2.53125 2.40625 -2.53125 L 3.03125 -2.53125 C 3.144531 -2.53125 3.203125 -2.488281 3.203125 -2.40625 C 3.203125 -2.320312 3.144531 -2.28125 3.03125 -2.28125 L 2.84375 -2.28125 L 2.84375 -0.25 L 3.125 -0.25 C 3.226562 -0.25 3.28125 -0.207031 3.28125 -0.125 C 3.28125 -0.0390625 3.226562 0 3.125 0 L 2.328125 0 C 2.210938 0 2.15625 -0.0390625 2.15625 -0.125 C 2.15625 -0.207031 2.210938 -0.25 2.328125 -0.25 L 2.59375 -0.25 Z "/>
</symbol>
<symbol overflow="visible" id="glyph0-5">
<path style="stroke:none;" d="M 3.171875 -1.265625 C 3.171875 -0.890625 3.035156 -0.566406 2.765625 -0.296875 C 2.503906 -0.0351562 2.179688 0.09375 1.796875 0.09375 C 1.421875 0.09375 1.097656 -0.0351562 0.828125 -0.296875 C 0.554688 -0.566406 0.421875 -0.890625 0.421875 -1.265625 C 0.421875 -1.640625 0.554688 -1.957031 0.828125 -2.21875 C 1.097656 -2.488281 1.421875 -2.625 1.796875 -2.625 C 2.179688 -2.625 2.503906 -2.488281 2.765625 -2.21875 C 3.035156 -1.957031 3.171875 -1.640625 3.171875 -1.265625 Z M 2.921875 -1.265625 C 2.921875 -1.566406 2.8125 -1.828125 2.59375 -2.046875 C 2.375 -2.265625 2.109375 -2.375 1.796875 -2.375 C 1.484375 -2.375 1.21875 -2.265625 1 -2.046875 C 0.78125 -1.828125 0.671875 -1.566406 0.671875 -1.265625 C 0.671875 -0.960938 0.78125 -0.703125 1 -0.484375 C 1.21875 -0.265625 1.484375 -0.15625 1.796875 -0.15625 C 2.109375 -0.15625 2.375 -0.257812 2.59375 -0.46875 C 2.8125 -0.6875 2.921875 -0.953125 2.921875 -1.265625 Z "/>
</symbol>
<symbol overflow="visible" id="glyph0-6">
<path style="stroke:none;" d="M 1.953125 -0.25 L 1.671875 -0.25 L 0.71875 -2.28125 L 0.703125 -2.28125 L 0.703125 -0.25 L 1.15625 -0.25 C 1.269531 -0.25 1.328125 -0.207031 1.328125 -0.125 C 1.328125 -0.0390625 1.269531 0 1.15625 0 L 0.25 0 C 0.144531 0 0.09375 -0.0390625 0.09375 -0.125 C 0.09375 -0.207031 0.144531 -0.25 0.25 -0.25 L 0.46875 -0.25 L 0.46875 -2.28125 L 0.3125 -2.28125 C 0.195312 -2.28125 0.140625 -2.320312 0.140625 -2.40625 C 0.140625 -2.488281 0.195312 -2.53125 0.3125 -2.53125 L 0.875 -2.53125 L 1.8125 -0.53125 L 2.71875 -2.53125 L 3.296875 -2.53125 C 3.398438 -2.53125 3.453125 -2.488281 3.453125 -2.40625 C 3.453125 -2.320312 3.398438 -2.28125 3.296875 -2.28125 L 3.140625 -2.28125 L 3.140625 -0.25 L 3.34375 -0.25 C 3.457031 -0.25 3.515625 -0.207031 3.515625 -0.125 C 3.515625 -0.0390625 3.457031 0 3.34375 0 L 2.4375 0 C 2.332031 0 2.28125 -0.0390625 2.28125 -0.125 C 2.28125 -0.207031 2.332031 -0.25 2.4375 -0.25 L 2.890625 -0.25 L 2.890625 -2.28125 L 2.875 -2.28125 Z "/>
</symbol>
<symbol overflow="visible" id="glyph0-7">
<path style="stroke:none;" d="M 3.125 -1.203125 L 0.625 -1.203125 C 0.664062 -0.890625 0.796875 -0.632812 1.015625 -0.4375 C 1.242188 -0.25 1.523438 -0.15625 1.859375 -0.15625 C 2.035156 -0.15625 2.222656 -0.179688 2.421875 -0.234375 C 2.628906 -0.296875 2.796875 -0.378906 2.921875 -0.484375 C 2.960938 -0.515625 2.992188 -0.53125 3.015625 -0.53125 C 3.046875 -0.53125 3.070312 -0.515625 3.09375 -0.484375 C 3.125 -0.460938 3.140625 -0.4375 3.140625 -0.40625 C 3.140625 -0.375 3.125 -0.34375 3.09375 -0.3125 C 3 -0.207031 2.832031 -0.113281 2.59375 -0.03125 C 2.351562 0.0507812 2.109375 0.09375 1.859375 0.09375 C 1.429688 0.09375 1.078125 -0.0390625 0.796875 -0.3125 C 0.515625 -0.59375 0.375 -0.929688 0.375 -1.328125 C 0.375 -1.679688 0.503906 -1.984375 0.765625 -2.234375 C 1.035156 -2.492188 1.363281 -2.625 1.75 -2.625 C 2.15625 -2.625 2.488281 -2.492188 2.75 -2.234375 C 3.007812 -1.972656 3.132812 -1.628906 3.125 -1.203125 Z M 2.890625 -1.453125 C 2.835938 -1.722656 2.707031 -1.941406 2.5 -2.109375 C 2.289062 -2.285156 2.039062 -2.375 1.75 -2.375 C 1.46875 -2.375 1.222656 -2.289062 1.015625 -2.125 C 0.804688 -1.957031 0.675781 -1.734375 0.625 -1.453125 Z "/>
</symbol>
<symbol overflow="visible" id="glyph0-8">
<path style="stroke:none;" d="M 0.875 -2.53125 L 0.875 -2.09375 C 1.019531 -2.269531 1.175781 -2.398438 1.34375 -2.484375 C 1.507812 -2.578125 1.707031 -2.625 1.9375 -2.625 C 2.175781 -2.625 2.398438 -2.566406 2.609375 -2.453125 C 2.816406 -2.335938 2.972656 -2.175781 3.078125 -1.96875 C 3.191406 -1.769531 3.25 -1.5625 3.25 -1.34375 C 3.25 -0.988281 3.125 -0.6875 2.875 -0.4375 C 2.625 -0.1875 2.3125 -0.0625 1.9375 -0.0625 C 1.5 -0.0625 1.144531 -0.238281 0.875 -0.59375 L 0.875 0.890625 L 1.46875 0.890625 C 1.53125 0.890625 1.570312 0.898438 1.59375 0.921875 C 1.625 0.941406 1.640625 0.972656 1.640625 1.015625 C 1.640625 1.046875 1.625 1.070312 1.59375 1.09375 C 1.570312 1.113281 1.53125 1.125 1.46875 1.125 L 0.296875 1.125 C 0.234375 1.125 0.1875 1.113281 0.15625 1.09375 C 0.132812 1.070312 0.125 1.046875 0.125 1.015625 C 0.125 0.972656 0.132812 0.941406 0.15625 0.921875 C 0.1875 0.898438 0.234375 0.890625 0.296875 0.890625 L 0.625 0.890625 L 0.625 -2.28125 L 0.296875 -2.28125 C 0.234375 -2.28125 0.1875 -2.289062 0.15625 -2.3125 C 0.132812 -2.34375 0.125 -2.378906 0.125 -2.421875 C 0.125 -2.453125 0.132812 -2.476562 0.15625 -2.5 C 0.1875 -2.519531 0.234375 -2.53125 0.296875 -2.53125 Z M 3 -1.34375 C 3 -1.625 2.894531 -1.863281 2.6875 -2.0625 C 2.488281 -2.269531 2.238281 -2.375 1.9375 -2.375 C 1.644531 -2.375 1.394531 -2.269531 1.1875 -2.0625 C 0.976562 -1.863281 0.875 -1.625 0.875 -1.34375 C 0.875 -1.0625 0.976562 -0.816406 1.1875 -0.609375 C 1.394531 -0.410156 1.644531 -0.3125 1.9375 -0.3125 C 2.238281 -0.3125 2.488281 -0.410156 2.6875 -0.609375 C 2.894531 -0.816406 3 -1.0625 3 -1.34375 Z "/>
</symbol>
<symbol overflow="visible" id="glyph0-9">
<path style="stroke:none;" d=""/>
</symbol>
<symbol overflow="visible" id="glyph0-10">
<path style="stroke:none;" d="M 1.921875 -3.421875 L 1.921875 0.515625 L 2.515625 0.515625 C 2.578125 0.515625 2.617188 0.523438 2.640625 0.546875 C 2.671875 0.566406 2.6875 0.597656 2.6875 0.640625 C 2.6875 0.671875 2.671875 0.695312 2.640625 0.71875 C 2.617188 0.75 2.578125 0.765625 2.515625 0.765625 L 1.671875 0.765625 L 1.671875 -3.671875 L 2.515625 -3.671875 C 2.578125 -3.671875 2.617188 -3.660156 2.640625 -3.640625 C 2.671875 -3.617188 2.6875 -3.585938 2.6875 -3.546875 C 2.6875 -3.515625 2.671875 -3.484375 2.640625 -3.453125 C 2.617188 -3.429688 2.578125 -3.421875 2.515625 -3.421875 Z "/>
</symbol>
<symbol overflow="visible" id="glyph0-11">
<path style="stroke:none;" d="M 2.9375 -2.140625 L 2.9375 -1.53125 C 2.9375 -1 2.804688 -0.582031 2.546875 -0.28125 C 2.347656 -0.03125 2.101562 0.09375 1.8125 0.09375 C 1.664062 0.09375 1.523438 0.0625 1.390625 0 C 1.265625 -0.0507812 1.15625 -0.128906 1.0625 -0.234375 C 1.007812 -0.304688 0.945312 -0.410156 0.875 -0.546875 C 0.8125 -0.691406 0.765625 -0.820312 0.734375 -0.9375 C 0.691406 -1.113281 0.671875 -1.3125 0.671875 -1.53125 L 0.671875 -2.140625 C 0.671875 -2.671875 0.796875 -3.09375 1.046875 -3.40625 C 1.242188 -3.644531 1.492188 -3.765625 1.796875 -3.765625 C 1.941406 -3.765625 2.078125 -3.734375 2.203125 -3.671875 C 2.328125 -3.617188 2.4375 -3.539062 2.53125 -3.4375 C 2.59375 -3.375 2.65625 -3.269531 2.71875 -3.125 C 2.78125 -2.976562 2.828125 -2.847656 2.859375 -2.734375 C 2.910156 -2.566406 2.9375 -2.367188 2.9375 -2.140625 Z M 2.6875 -2.109375 C 2.6875 -2.335938 2.648438 -2.550781 2.578125 -2.75 C 2.515625 -2.957031 2.441406 -3.117188 2.359375 -3.234375 C 2.316406 -3.304688 2.253906 -3.363281 2.171875 -3.40625 C 2.054688 -3.476562 1.929688 -3.515625 1.796875 -3.515625 C 1.523438 -3.515625 1.3125 -3.375 1.15625 -3.09375 C 1 -2.8125 0.921875 -2.484375 0.921875 -2.109375 L 0.921875 -1.5625 C 0.921875 -1.332031 0.953125 -1.113281 1.015625 -0.90625 C 1.078125 -0.707031 1.148438 -0.550781 1.234375 -0.4375 C 1.285156 -0.375 1.347656 -0.316406 1.421875 -0.265625 C 1.535156 -0.191406 1.664062 -0.15625 1.8125 -0.15625 C 2.082031 -0.15625 2.296875 -0.296875 2.453125 -0.578125 C 2.609375 -0.859375 2.6875 -1.1875 2.6875 -1.5625 Z "/>
</symbol>
<symbol overflow="visible" id="glyph0-12">
<path style="stroke:none;" d="M 1.3125 -0.890625 L 2.109375 -0.890625 L 1.25 0.734375 C 1.1875 0.828125 1.117188 0.875 1.046875 0.875 C 1.003906 0.875 0.960938 0.859375 0.921875 0.828125 C 0.890625 0.796875 0.875 0.753906 0.875 0.703125 C 0.875 0.679688 0.878906 0.660156 0.890625 0.640625 Z "/>
</symbol>
<symbol overflow="visible" id="glyph0-13">
<path style="stroke:none;" d="M 1.921875 -3.734375 L 1.921875 -0.25 L 2.765625 -0.25 C 2.828125 -0.25 2.867188 -0.234375 2.890625 -0.203125 C 2.921875 -0.179688 2.9375 -0.15625 2.9375 -0.125 C 2.9375 -0.09375 2.921875 -0.0625 2.890625 -0.03125 C 2.867188 -0.0078125 2.828125 0 2.765625 0 L 0.828125 0 C 0.773438 0 0.734375 -0.0078125 0.703125 -0.03125 C 0.679688 -0.0625 0.671875 -0.09375 0.671875 -0.125 C 0.671875 -0.15625 0.679688 -0.179688 0.703125 -0.203125 C 0.734375 -0.234375 0.773438 -0.25 0.828125 -0.25 L 1.671875 -0.25 L 1.671875 -3.390625 L 0.875 -3.140625 C 0.832031 -3.128906 0.800781 -3.125 0.78125 -3.125 C 0.757812 -3.125 0.734375 -3.132812 0.703125 -3.15625 C 0.679688 -3.175781 0.671875 -3.203125 0.671875 -3.234375 C 0.671875 -3.265625 0.679688 -3.296875 0.703125 -3.328125 C 0.710938 -3.335938 0.742188 -3.351562 0.796875 -3.375 Z "/>
</symbol>
<symbol overflow="visible" id="glyph0-14">
<path style="stroke:none;" d="M 1.6875 0.515625 L 1.6875 -3.421875 L 1.09375 -3.421875 C 1.03125 -3.421875 0.984375 -3.429688 0.953125 -3.453125 C 0.929688 -3.484375 0.921875 -3.515625 0.921875 -3.546875 C 0.921875 -3.585938 0.929688 -3.617188 0.953125 -3.640625 C 0.984375 -3.660156 1.03125 -3.671875 1.09375 -3.671875 L 1.9375 -3.671875 L 1.9375 0.765625 L 1.09375 0.765625 C 1.03125 0.765625 0.984375 0.75 0.953125 0.71875 C 0.929688 0.695312 0.921875 0.671875 0.921875 0.640625 C 0.921875 0.597656 0.929688 0.566406 0.953125 0.546875 C 0.984375 0.523438 1.03125 0.515625 1.09375 0.515625 Z "/>
</symbol>
<symbol overflow="visible" id="glyph0-15">
<path style="stroke:none;" d="M 1.234375 -1.96875 L 2.25 -1.96875 C 2.25 -2.019531 2.257812 -2.050781 2.28125 -2.0625 C 2.300781 -2.09375 2.328125 -2.109375 2.359375 -2.109375 C 2.398438 -2.109375 2.429688 -2.097656 2.453125 -2.078125 C 2.460938 -2.054688 2.46875 -2.03125 2.46875 -2 L 2.46875 -1.8125 L 1 -1.8125 L 1 -2.015625 C 1.6875 -2.554688 2.078125 -2.890625 2.171875 -3.015625 C 2.222656 -3.078125 2.25 -3.144531 2.25 -3.21875 C 2.25 -3.3125 2.203125 -3.394531 2.109375 -3.46875 C 2.023438 -3.550781 1.914062 -3.59375 1.78125 -3.59375 C 1.65625 -3.59375 1.546875 -3.5625 1.453125 -3.5 C 1.367188 -3.445312 1.3125 -3.375 1.28125 -3.28125 C 1.269531 -3.257812 1.257812 -3.242188 1.25 -3.234375 C 1.226562 -3.222656 1.203125 -3.21875 1.171875 -3.21875 C 1.140625 -3.21875 1.113281 -3.222656 1.09375 -3.234375 C 1.070312 -3.253906 1.0625 -3.269531 1.0625 -3.28125 C 1.0625 -3.375 1.128906 -3.476562 1.265625 -3.59375 C 1.398438 -3.707031 1.570312 -3.765625 1.78125 -3.765625 C 1.976562 -3.765625 2.140625 -3.703125 2.265625 -3.578125 C 2.398438 -3.460938 2.46875 -3.34375 2.46875 -3.21875 C 2.46875 -3.144531 2.453125 -3.078125 2.421875 -3.015625 C 2.359375 -2.921875 2.203125 -2.765625 1.953125 -2.546875 C 1.628906 -2.273438 1.390625 -2.082031 1.234375 -1.96875 Z "/>
</symbol>
</g>
</defs>
<g id="surface1">
<g style="fill:rgb(10.196078%,10.196078%,10.196078%);fill-opacity:1;">
  <use xlink:href="#glyph0-1" x="30" y="24.625"/>
  <use xlink:href="#glyph0-2" x="33" y="24.625"/>
  <use xlink:href="#glyph0-3" x="36" y="24.625"/>
  <use xlink:href="#glyph0-4" x="39" y="24.625"/>
  <use xlink:href="#glyph0-5" x="42" y="24.625"/>
  <use xlink:href="#glyph0-6" x="45" y="24.625"/>
  <use xlink:href="#glyph0-7" x="48" y="24.625"/>
  <use xlink:href="#glyph0-8" x="51" y="24.625"/>
  <use xlink:href="#glyph0-4" x="54" y="24.625"/>
  <use xlink:href="#glyph0-5" x="57" y="24.625"/>
  <use xlink:href="#glyph0-9" x="60" y="24.625"/>
  <use xlink:href="#glyph0-3" x="63" y="24.625"/>
  <use xlink:href="#glyph0-9" x="66" y="24.625"/>
  <use xlink:href="#glyph0-10" x="69" y="24.625"/>
  <use xlink:href="#glyph0-11" x="72" y="24.625"/>
  <use xlink:href="#glyph0-12" x="75" y="24.625"/>
  <use xlink:href="#glyph0-13" x="78" y="24.625"/>
  <use xlink:href="#glyph0-14" x="81" y="24.625"/>
  <use xlink:href="#glyph0-15" x="84" y="24.625"/>
</g>
</g>
</svg>
